<svg width="100" height="100" viewBox="0 0 100 100" fill="none" xmlns="http://www.w3.org/2000/svg">
<g clip-path="url(#clip0_67_2550)">
<circle cx="50.5" cy="50.5" r="50.5" fill="#0070FF"/>
<path d="M15.2852 59.3857C15.567 59.5267 17.0511 62.3474 19.291 66.7931C20.47 69.1332 22.7416 70.974 26.6781 73.672C28.843 75.1558 31.6715 76.3699 33.968 77.412C37.9913 79.2375 40.6162 80.0256 42.143 80.3448C43.6186 80.6533 46.7211 81.2341 51.1967 81.626C54.9534 81.9549 57.6261 81.3815 61.2336 80.0747C63.9658 79.085 68.3645 77.0063 71.4265 75.4966C76.1303 73.1775 78.3406 71.4203 79.6901 70.2843C80.335 69.7121 80.8987 69.1483 81.4357 68.4352C81.9728 67.722 82.466 66.8764 82.9742 66.0052" stroke="black" stroke-width="10" stroke-linecap="round"/>
<path d="M36.6365 21.377C36.4955 21.7997 36.0706 23.0041 35.3959 25.6967C34.9738 27.3809 34.7916 29.7986 34.2941 33.2877C33.7965 36.7767 33.0919 41.2865 32.7289 44.4905C32.3659 47.6945 32.3659 49.4562 32.1523 51.4847" stroke="black" stroke-width="10" stroke-linecap="round"/>
<path d="M66.1041 20.7363C66.1041 20.9477 66.1041 21.1591 66.1393 24.1923C66.1746 27.2255 66.245 33.0741 66.2461 36.3336C66.2473 40.0871 66.0336 42.4972 65.7507 46.2959C65.1859 50.0241 64.8229 52.2641 64.7877 52.9036C64.7524 53.1908 64.682 53.4022 64.6094 53.8335" stroke="black" stroke-width="10" stroke-linecap="round"/>
</g>
<defs>
<clipPath id="clip0_67_2550">
<rect width="100" height="100" fill="white"/>
</clipPath>
</defs>
</svg>
